<?xml version="1.0" standalone="no"?>
<!DOCTYPE svg PUBLIC "-//W3C//DTD SVG 20010904//EN"
 "http://www.w3.org/TR/2001/REC-SVG-20010904/DTD/svg10.dtd">
<svg version="1.0" xmlns="http://www.w3.org/2000/svg"
 width="429.000000pt" height="429.000000pt" viewBox="0 0 429.000000 429.000000"
 preserveAspectRatio="xMidYMid meet">
<metadata>
Created by potrace 1.11, written by Peter Selinger 2001-2013
</metadata>
<g transform="translate(0.000000,429.000000) scale(0.100000,-0.100000)"
fill="#000000" stroke="none">
<path d="M2037 4284 c-1 -1 -41 -4 -88 -8 -47 -4 -95 -8 -106 -10 -11 -3 -38
-7 -59 -10 -233 -37 -506 -137 -726 -267 -424 -250 -748 -637 -921 -1100 -36
-95 -89 -292 -102 -379 -4 -25 -9 -54 -11 -65 -24 -127 -23 -474 1 -610 28
-155 39 -207 65 -294 186 -626 639 -1127 1245 -1379 150 -62 368 -121 515
-138 240 -28 480 -23 678 16 130 26 150 30 232 55 3 1 19 5 35 10 52 14 225
85 305 124 207 104 378 228 551 400 187 187 300 345 414 575 332 673 284 1477
-126 2106 -304 466 -767 791 -1309 919 -47 11 -103 23 -125 26 -22 4 -50 8
-63 10 -78 13 -394 28 -405 19z"/>
</g>
</svg>
